<svg width="2086" height="748" viewBox="0 0 2086 748" fill="none" xmlns="http://www.w3.org/2000/svg">
<g filter="url(#filter0_d_176_10)">
<g filter="url(#filter1_d_176_10)">
<path fill-rule="evenodd" clip-rule="evenodd" d="M1228.9 156.187C1227.56 172.642 1224.77 188.96 1222.47 205.33C1218.12 236.372 1213.98 267.448 1209.16 298.423C1205.96 318.956 1198.9 325.006 1178.76 325.59C1164.55 325.984 1150.33 325.676 1136.11 325.574C1134.62 325.557 1133.14 324.913 1129.95 324.049C1129.47 323.918 1129.15 323.456 1129.21 322.96C1136.38 261.002 1146.19 199.367 1154.79 135.355C1154.86 134.859 1155.28 134.487 1155.79 134.487C1175.19 134.467 1193.04 133.815 1210.82 134.71C1224.6 135.395 1230.06 141.978 1228.9 156.187ZM1396.83 92.4408C1393.99 47.4461 1374.18 22.4719 1330.59 10.165C1302.98 2.36588 1274.61 0.274735 1246.09 0.240454C1110.01 0.0519038 973.938 0.0348142 837.855 0.0348142C833.761 0.0348142 829.666 0.89803 825.045 1.48428C824.597 1.54115 824.239 1.88849 824.173 2.33547C812.509 81.1514 793.071 157.025 766.841 231.092C740.479 305.537 708.731 377.513 668.755 445.61C668.529 445.995 668.074 446.184 667.642 446.07C666.919 445.878 666.195 445.684 665.472 445.493C664.981 445.364 664.662 444.888 664.732 444.385C685.224 297.182 705.718 149.978 726.34 1.82555C726.421 1.24196 725.981 0.71481 725.393 0.686921C718.689 0.369264 713.896 -0.0157672 709.099 0.000498442C481.376 0.189049 253.65 0.411862 25.9212 0.668972C25.5522 0.668972 25.1184 1.3032 24.8346 1.71458C24.5762 2.10711 24.4092 2.54548 24.0409 3.37669C23.8752 3.75076 23.9462 4.18889 24.2273 4.48625C27.7698 8.23501 31.4343 12.2183 35.2461 16.0443C51.7224 32.6366 67.9579 49.486 84.899 65.5984C91.4102 71.7861 94.2205 77.9397 91.9841 86.6816C91.0036 90.5038 91.1692 94.6176 90.6106 98.5771C80.8569 167.5 70.9837 236.388 61.3139 305.33C44.1933 427.373 27.1667 549.415 10.1777 671.474C7.97308 687.321 6.21647 703.218 4.13833 720.128C4.06504 720.724 4.53099 721.251 5.13187 721.251C59.4327 721.251 112.05 721.251 166.364 721.251C166.863 721.251 167.286 720.883 167.356 720.389C180.345 627.409 193.256 535.017 206.399 440.952C206.468 440.458 206.891 440.09 207.39 440.09C258.787 440.09 308.63 440.09 359.623 440.09C360.123 440.09 360.546 439.721 360.614 439.226C367.06 392.62 373.272 347.719 379.802 300.503C379.885 299.902 379.417 299.365 378.81 299.365C327.393 299.365 278.291 299.365 227.226 299.365C226.618 299.365 226.15 298.826 226.235 298.224C233.779 244.787 240.999 193.681 248.156 142.968C248.219 142.524 248.488 142.186 248.934 142.133C276.696 138.809 443.75 139.916 460.334 143.458C460.787 143.555 460.971 143.95 460.942 144.412C460.615 149.682 460.288 155.087 459.943 160.507C457.466 199.228 454.121 237.933 452.679 276.688C449.211 370.122 456.489 462.682 478.012 553.819C491.439 610.676 510.22 665.629 539.672 716.416C544.035 723.928 549.222 730.973 554.718 739.191C555.01 739.628 555.591 739.766 556.048 739.506C563.721 735.143 570.435 731.582 576.856 727.575C621.965 699.31 663.052 665.937 700.874 628.518C838.863 492.044 921.873 326.018 962.319 137.298C967.917 111.185 972.209 84.7903 977.261 57.4957C977.389 56.8069 978.168 56.4598 978.76 56.8327C992.544 65.5023 1000.75 75.3114 996.02 92.5437C993.469 101.834 992.848 111.656 991.508 121.272C981.892 190.195 972.335 259.151 962.717 328.093C954.122 389.678 945.472 451.266 936.85 512.853C927.436 580.095 918.007 647.323 908.699 714.582C908.452 716.369 909.231 718.295 909.772 720.632C909.88 721.098 910.291 721.439 910.77 721.439C964.222 721.439 1017.02 721.439 1071.73 721.439C1072.23 721.439 1072.65 721.072 1072.72 720.579C1085.36 631.763 1097.95 543.382 1110.71 453.702C1110.78 453.209 1111.21 452.843 1111.7 452.842C1126.94 452.835 1140.81 452.641 1154.67 452.893C1170.69 453.204 1179.15 460.248 1181.09 475.967C1182.12 484.382 1182.04 493.174 1180.91 501.573C1173.83 554.162 1166.28 606.681 1158.96 659.235C1156.19 679.088 1153.6 698.974 1150.77 720.013C1150.69 720.613 1151.16 721.147 1151.77 721.147C1206.5 721.147 1259.63 721.147 1313.81 721.147C1314.29 721.147 1314.71 720.8 1314.79 720.324C1315.87 714.454 1316.97 709.195 1317.73 703.904C1325.35 650.818 1333.45 597.784 1340.27 544.598C1344.04 515.217 1347.59 485.581 1347.69 456.031C1347.83 416.315 1331.04 396.639 1293.19 385.48C1290.67 384.725 1288.08 384.212 1285.51 383.613C1285.19 383.538 1284.92 383.303 1284.81 382.99C1284.73 382.778 1284.65 382.565 1284.57 382.351C1284.37 381.796 1284.69 381.185 1285.26 381.031C1289.25 379.95 1293.21 378.667 1297.27 377.989C1332.83 372.058 1355.33 351.113 1366.69 317.362C1368.88 310.899 1371.44 304.42 1372.59 297.737C1378.28 264.586 1384.05 231.435 1388.82 198.148C1393.84 163.129 1399.07 128.077 1396.83 92.4408Z" fill="white"/>
<path d="M709.1 0.500977H709.101C713.283 0.486794 717.452 0.777807 722.935 1.06445L725.369 1.18652C725.629 1.19896 725.829 1.40373 725.848 1.64941L725.845 1.75684L664.237 444.316C664.139 445.024 664.552 445.694 665.21 445.935L665.345 445.977L667.515 446.553C668.124 446.714 668.762 446.475 669.119 445.968L669.187 445.863C708.556 378.798 739.947 307.977 766.072 234.748L767.312 231.259C793.143 158.321 812.389 83.63 824.114 6.10254L824.667 2.4082C824.696 2.21313 824.838 2.05412 825.025 1.99805L825.108 1.98047C829.784 1.38722 833.802 0.535156 837.855 0.535156C956.928 0.535156 1075.99 0.54815 1195.06 0.677734L1246.09 0.740234C1274.14 0.77396 1302.02 2.7995 1329.16 10.2852L1330.45 10.6465C1352.18 16.7816 1367.93 26.0578 1378.6 39.3584C1388.94 52.2437 1394.56 68.9583 1396.18 90.3838L1396.33 92.4727C1398.28 123.601 1394.53 154.289 1390.2 184.941L1388.32 198.077C1384.75 223.036 1380.61 247.919 1376.36 272.787L1372.09 297.652C1371.1 303.455 1369.03 309.097 1367.06 314.769L1366.22 317.202V317.203C1360.56 334.013 1352.14 347.607 1340.73 357.734C1329.67 367.544 1315.79 374.123 1298.84 377.208L1297.19 377.495C1293.61 378.093 1290.09 379.162 1286.62 380.138L1285.13 380.548C1284.33 380.764 1283.86 381.578 1284.06 382.366L1284.1 382.523L1284.34 383.163C1284.49 383.575 1284.81 383.896 1285.22 384.047L1285.4 384.101C1287.66 384.629 1289.9 385.082 1292.11 385.688L1293.05 385.959L1293.05 385.96C1311.92 391.524 1325.47 399.191 1334.3 410.356C1342.84 421.168 1347 435.324 1347.19 454.189L1347.19 456.029C1347.1 483.7 1343.97 511.452 1340.48 539.023L1339.78 544.535C1333.38 594.392 1325.86 644.112 1318.67 693.879L1317.23 703.833C1316.66 707.792 1315.9 711.727 1315.11 715.931L1314.3 720.234C1314.26 720.473 1314.05 720.646 1313.81 720.646H1151.77C1151.5 720.646 1151.29 720.442 1151.27 720.189L1151.27 720.079C1153.74 701.668 1156.03 684.144 1158.42 666.752L1159.45 659.305C1166.32 610.038 1173.38 560.796 1180.07 511.5L1181.4 501.64C1182.47 493.727 1182.61 485.467 1181.77 477.496L1181.58 475.905L1181.49 475.168C1180.44 467.608 1177.83 462.025 1173.49 458.273C1169.15 454.526 1163.15 452.668 1155.44 452.413L1154.68 452.394L1152.08 452.352C1140.81 452.19 1129.47 452.296 1117.35 452.332L1111.7 452.343C1111 452.343 1110.4 452.825 1110.24 453.495L1110.22 453.632L1072.22 720.509C1072.19 720.755 1071.98 720.938 1071.73 720.938H910.77C910.563 720.938 910.371 720.809 910.288 720.608L910.259 720.519C910.121 719.925 909.969 719.358 909.824 718.821C909.678 718.282 909.54 717.776 909.427 717.288C909.228 716.432 909.114 715.669 909.163 714.954L909.194 714.65C913.848 681.021 918.533 647.4 923.23 613.78L937.346 512.922C943.812 466.732 950.294 420.541 956.757 374.352L963.212 328.162C970.428 276.433 977.604 224.746 984.799 173.047L992.003 121.341C993.308 111.976 993.924 102.534 996.27 93.5449L996.502 92.6758C998.897 83.9545 998.028 77.0558 994.771 71.2334C991.729 65.7965 986.631 61.3485 980.308 57.2295L979.026 56.4092C978.186 55.881 977.105 56.312 976.816 57.2178L976.77 57.4043C972.03 83.0069 967.965 107.789 962.864 132.296L961.83 137.193C921.717 324.357 839.727 489.172 703.745 624.96L700.522 628.162C663.314 664.974 622.948 697.865 578.701 725.824L576.592 727.15C570.983 730.65 565.159 733.805 558.64 737.468L555.801 739.071C555.6 739.185 555.353 739.146 555.195 738.988L555.134 738.913C549.965 731.184 545.104 724.54 540.93 717.564L540.104 716.165C511.144 666.226 492.507 612.245 479.131 556.366L478.498 553.704C457.323 464.04 449.943 372.994 453.024 281.084L453.179 276.706C454.53 240.381 457.554 204.111 459.968 167.801L460.441 160.539V160.538L461.441 144.443C461.46 144.143 461.413 143.821 461.25 143.544C461.1 143.29 460.868 143.099 460.57 143.004L460.438 142.969C458.321 142.517 453.857 142.111 447.656 141.749C441.44 141.386 433.441 141.064 424.226 140.789C405.793 140.239 382.485 139.873 358.829 139.721C313.015 139.426 265.84 139.936 250.28 141.483L248.874 141.637C248.195 141.718 247.798 142.22 247.681 142.785L247.661 142.898L225.739 298.154C225.612 299.057 226.314 299.865 227.226 299.865H378.811C379.076 299.865 379.288 300.071 379.31 300.324L379.307 300.435L360.119 439.158C360.085 439.406 359.872 439.59 359.623 439.59H207.391C206.689 439.59 206.088 440.075 205.93 440.746L205.904 440.883L166.86 720.32C166.826 720.567 166.614 720.751 166.364 720.751H5.13184C4.86898 720.751 4.65713 720.549 4.63281 720.299L4.63477 720.188C6.58395 704.328 8.2482 689.375 10.2646 674.514L10.6729 671.542C25.5382 564.741 40.4328 457.952 55.3936 351.165L61.8086 305.399C70.2697 245.075 78.8871 184.794 87.4434 124.492L91.1055 98.6475C91.3878 96.6463 91.4881 94.5984 91.6377 92.6152C91.7695 90.8688 91.9405 89.1598 92.3018 87.5098L92.4688 86.8057C93.6079 82.353 93.4678 78.525 92.1914 75.0117C90.998 71.7268 88.8246 68.7544 85.8496 65.8223L85.2432 65.2363C70.4256 51.1436 56.1512 36.4894 41.7715 21.9258L35.6006 15.6924V15.6914L34.1797 14.2529C31.8241 11.8451 29.5255 9.39496 27.2725 6.99414L24.5908 4.14258C24.4687 4.01329 24.4237 3.82749 24.4717 3.65332L24.498 3.5791C24.8792 2.71878 25.021 2.34251 25.2461 1.99805C25.3923 1.78598 25.5531 1.55388 25.7168 1.37305C25.7981 1.28322 25.8658 1.22323 25.917 1.18848C25.9321 1.17821 25.9425 1.17139 25.9492 1.16797C196.737 0.975148 367.522 0.802693 538.307 0.648438L709.1 0.500977ZM1210.84 134.211C1194.16 133.371 1177.4 133.892 1159.4 133.977L1155.79 133.987C1155.08 133.988 1154.48 134.476 1154.32 135.151L1154.3 135.288C1145.96 197.282 1136.5 257.084 1129.39 317.095L1128.71 322.902C1128.63 323.602 1129.05 324.251 1129.69 324.489L1129.82 324.531C1131.42 324.965 1132.55 325.33 1133.53 325.61C1134.37 325.849 1135.09 326.018 1135.8 326.062L1136.1 326.073H1136.1C1149.42 326.169 1162.78 326.446 1176.11 326.155L1178.78 326.09H1178.78C1188.87 325.797 1195.83 324.135 1200.64 319.861C1205.31 315.722 1207.88 309.215 1209.5 299.454L1209.65 298.499C1213.87 271.392 1217.57 244.206 1221.34 217.04L1222.97 205.399C1225.19 189.561 1227.88 173.724 1229.27 157.772L1229.4 156.228C1229.98 149.069 1228.91 143.711 1225.85 140.056C1222.77 136.395 1217.8 134.557 1210.84 134.211H1210.84Z" stroke="black"/>
</g>
<g filter="url(#filter2_d_176_10)">
<path fill-rule="evenodd" clip-rule="evenodd" d="M1927.43 454.462C1927.43 455.008 1926.98 455.447 1926.43 455.447C1899.62 455.447 1873.9 455.447 1846.39 455.447C1845.73 455.447 1845.25 454.825 1845.42 454.19C1872.88 350.709 1900.11 248.053 1927.34 145.401C1927.45 144.951 1927.87 144.643 1928.33 144.656C1929.34 144.686 1930.35 144.709 1931.36 144.731C1931.91 144.743 1932.35 145.197 1932.34 145.747C1930.71 248.244 1929.08 350.73 1927.43 454.462ZM1740.61 4.23417C1739.88 4.35595 1739.78 5.1715 1740.3 5.69702C1756.77 22.2919 1772.28 38.983 1789.12 54.249C1799.37 63.5392 1801.1 72.0926 1797.29 85.428C1739.34 288.888 1681.95 492.539 1624.47 696.155C1622.3 703.862 1620.55 711.709 1618.31 720.795C1618.15 721.426 1618.63 722.038 1619.28 722.038C1673.84 722.038 1726.91 722.038 1781.19 722.038C1781.65 722.038 1782.04 721.732 1782.16 721.294C1792.74 681.518 1803.26 642.025 1813.63 603.067C1813.74 602.629 1814.14 602.325 1814.59 602.325C1849.74 602.325 1883.11 602.325 1917.21 602.325C1917.76 602.325 1918.21 602.773 1918.21 603.325C1918.21 642.872 1918.21 681.424 1918.21 721.072C1918.21 721.624 1918.66 722.072 1919.21 722.072C1972.42 722.072 2025.06 722.072 2078.88 722.072C2079.39 722.072 2079.8 721.919 2079.84 721.409C2084.1 673.848 2080.15 24.2643 2075.65 2.3021C2075.57 1.90976 2075.38 1.93664 2074.99 1.90434C2031.94 -1.57798 1765.88 0.020096 1740.61 4.23417Z" fill="white"/>
<path d="M1901.14 0.682617C1975.03 0.199237 2051.04 0.649413 2073.9 2.32227L2074.95 2.40234C2075 2.40659 2075.05 2.4102 2075.09 2.41309C2075.12 2.41512 2075.14 2.41708 2075.16 2.41895C2075.43 3.75829 2075.71 7.52877 2075.99 13.498C2076.26 19.469 2076.53 27.5923 2076.8 37.5693C2077.33 57.5231 2077.83 84.8827 2078.3 117.247C2079.24 181.975 2080.02 266.717 2080.53 352.259C2081.04 437.801 2081.28 524.143 2081.12 592.071C2080.97 657.894 2080.44 706.391 2079.44 720.143L2079.35 721.364C2079.34 721.427 2079.33 721.456 2079.32 721.467C2079.31 721.477 2079.3 721.488 2079.28 721.502C2079.22 721.537 2079.1 721.572 2078.88 721.572H1919.21C1918.93 721.572 1918.71 721.348 1918.71 721.071V603.325C1918.71 602.497 1918.04 601.825 1917.21 601.825H1814.59C1813.96 601.825 1813.39 602.226 1813.18 602.818L1813.14 602.938C1807.96 622.419 1802.74 642.031 1797.49 661.745L1781.68 721.166C1781.62 721.385 1781.42 721.537 1781.19 721.537H1619.28C1619 721.537 1618.78 721.303 1618.78 721.032L1618.79 720.915C1620.9 712.384 1622.56 704.971 1624.55 697.736L1624.96 696.291C1678.84 505.4 1732.64 314.481 1786.91 123.716L1797.77 85.5654C1799.68 78.8568 1800.23 73.2874 1798.96 68.2012C1797.73 63.2673 1794.82 58.85 1789.93 54.3174L1789.45 53.8789C1773.68 39.578 1759.08 24.0337 1743.73 8.45996L1740.65 5.34473C1740.49 5.1818 1740.46 5.00678 1740.48 4.9043C1740.48 4.85565 1740.5 4.82163 1740.53 4.79785C1740.55 4.78049 1740.58 4.75786 1740.63 4.74121L1740.69 4.72754C1743.82 4.2067 1750.71 3.7218 1760.49 3.28125C1770.26 2.84129 1782.89 2.4465 1797.48 2.10254C1826.64 1.41462 1863.61 0.928099 1901.14 0.682617ZM1928.35 144.156C1927.7 144.138 1927.11 144.542 1926.89 145.148L1926.85 145.272C1913.24 196.599 1899.63 247.926 1885.98 299.356L1844.94 454.062C1844.69 455.014 1845.41 455.947 1846.39 455.947H1926.43C1927.2 455.947 1927.84 455.369 1927.92 454.622L1927.93 454.471L1932.84 145.755C1932.85 144.981 1932.28 144.335 1931.53 144.242L1931.37 144.231L1928.35 144.156Z" stroke="black"/>
</g>
<g filter="url(#filter3_d_176_10)">
<path fill-rule="evenodd" clip-rule="evenodd" d="M1417.35 1.45776C1416.49 1.45776 1416.03 2.47623 1416.59 3.12501C1420.67 7.79728 1423.46 11.1914 1426.54 14.2962C1442.98 30.9056 1459.14 47.8408 1476.17 63.8158C1484.49 71.6321 1487.06 79.1911 1485.14 90.7613C1479.27 126.191 1474.86 161.861 1469.94 197.446C1459.23 274.836 1448.61 352.244 1437.82 429.617C1425.83 515.459 1413.66 601.282 1401.63 687.124C1400.11 697.924 1399 708.774 1397.62 720.56C1397.55 721.155 1398.01 721.678 1398.61 721.678C1452.95 721.678 1505.59 721.678 1559.85 721.678C1560.35 721.678 1560.78 721.31 1560.85 720.816C1594.39 480.371 1627.67 241.898 1661.06 2.59607C1661.14 1.99466 1660.67 1.45776 1660.07 1.45776C1578.43 1.45776 1499.13 1.45776 1417.35 1.45776Z" fill="white"/>
<path d="M1417.35 1.95776H1660.07C1660.33 1.95776 1660.55 2.16396 1660.57 2.41675L1660.56 2.5271L1560.35 720.747C1560.32 720.993 1560.1 721.178 1559.85 721.178H1398.61C1398.35 721.178 1398.14 720.978 1398.11 720.728L1398.11 720.619C1399.41 709.559 1400.47 699.344 1401.85 689.218L1402.13 687.193C1412.65 612.084 1423.28 536.984 1433.81 461.877L1438.31 429.686C1446.41 371.656 1454.4 313.606 1462.41 255.559L1470.43 197.514C1475.2 163.033 1479.49 128.493 1485.09 94.1648L1485.64 90.8435V90.8425C1486.6 85.0051 1486.45 80.1356 1484.97 75.7224C1483.59 71.5843 1481.06 67.8884 1477.29 64.1912L1476.52 63.4509H1476.51C1461.62 49.4802 1447.39 34.7782 1433.05 20.1882L1426.9 13.9441H1426.9C1424.6 11.6268 1422.47 9.15118 1419.82 6.08081L1416.97 2.79565C1416.68 2.46829 1416.92 1.95776 1417.35 1.95776Z" stroke="black"/>
</g>
</g>
<defs>
<filter id="filter0_d_176_10" x="0.130859" y="0" width="2085.54" height="747.637" filterUnits="userSpaceOnUse" color-interpolation-filters="sRGB">
<feFlood flood-opacity="0" result="BackgroundImageFix"/>
<feColorMatrix in="SourceAlpha" type="matrix" values="0 0 0 0 0 0 0 0 0 0 0 0 0 0 0 0 0 0 127 0" result="hardAlpha"/>
<feOffset dy="4"/>
<feGaussianBlur stdDeviation="2"/>
<feComposite in2="hardAlpha" operator="out"/>
<feColorMatrix type="matrix" values="0 0 0 0 0 0 0 0 0 0 0 0 0 0 0 0 0 0 0.25 0"/>
<feBlend mode="normal" in2="BackgroundImageFix" result="effect1_dropShadow_176_10"/>
<feBlend mode="normal" in="SourceGraphic" in2="effect1_dropShadow_176_10" result="shape"/>
</filter>
<filter id="filter1_d_176_10" x="0.130859" y="0" width="1401.23" height="747.637" filterUnits="userSpaceOnUse" color-interpolation-filters="sRGB">
<feFlood flood-opacity="0" result="BackgroundImageFix"/>
<feColorMatrix in="SourceAlpha" type="matrix" values="0 0 0 0 0 0 0 0 0 0 0 0 0 0 0 0 0 0 127 0" result="hardAlpha"/>
<feOffset dy="4"/>
<feGaussianBlur stdDeviation="2"/>
<feComposite in2="hardAlpha" operator="out"/>
<feColorMatrix type="matrix" values="0 0 0 0 1 0 0 0 0 1 0 0 0 0 1 0 0 0 0.25 0"/>
<feBlend mode="normal" in2="BackgroundImageFix" result="effect1_dropShadow_176_10"/>
<feBlend mode="normal" in="SourceGraphic" in2="effect1_dropShadow_176_10" result="shape"/>
</filter>
<filter id="filter2_d_176_10" x="1614.28" y="0" width="471.389" height="730.072" filterUnits="userSpaceOnUse" color-interpolation-filters="sRGB">
<feFlood flood-opacity="0" result="BackgroundImageFix"/>
<feColorMatrix in="SourceAlpha" type="matrix" values="0 0 0 0 0 0 0 0 0 0 0 0 0 0 0 0 0 0 127 0" result="hardAlpha"/>
<feOffset dy="4"/>
<feGaussianBlur stdDeviation="2"/>
<feComposite in2="hardAlpha" operator="out"/>
<feColorMatrix type="matrix" values="0 0 0 0 1 0 0 0 0 1 0 0 0 0 1 0 0 0 0.25 0"/>
<feBlend mode="normal" in2="BackgroundImageFix" result="effect1_dropShadow_176_10"/>
<feBlend mode="normal" in="SourceGraphic" in2="effect1_dropShadow_176_10" result="shape"/>
</filter>
<filter id="filter3_d_176_10" x="1393.61" y="1.45776" width="271.46" height="728.22" filterUnits="userSpaceOnUse" color-interpolation-filters="sRGB">
<feFlood flood-opacity="0" result="BackgroundImageFix"/>
<feColorMatrix in="SourceAlpha" type="matrix" values="0 0 0 0 0 0 0 0 0 0 0 0 0 0 0 0 0 0 127 0" result="hardAlpha"/>
<feOffset dy="4"/>
<feGaussianBlur stdDeviation="2"/>
<feComposite in2="hardAlpha" operator="out"/>
<feColorMatrix type="matrix" values="0 0 0 0 1 0 0 0 0 1 0 0 0 0 1 0 0 0 0.25 0"/>
<feBlend mode="normal" in2="BackgroundImageFix" result="effect1_dropShadow_176_10"/>
<feBlend mode="normal" in="SourceGraphic" in2="effect1_dropShadow_176_10" result="shape"/>
</filter>
</defs>
</svg>
